{"title":"The.Walking.Dead.S06.COMPLETE.HDTV.x264-MULTiGRPS","uid":14300036,"size":9513828111,"categoryP":"video","categoryS":"tv_shows","magnet":"?xt=urn:btih:f43fe2efdbda654a6b99cd06e752ab22e1026dd3&amp;dn=The.Walking.Dead.S06.COMPLETE.HDTV.x264-MULTiGRPS&amp;tr=udp%3A%2F%2Ftracker.leechers-paradise.org%3A6969&amp;tr=udp%3A%2F%2Fzer0day.ch%3A1337&amp;tr=udp%3A%2F%2Fopen.demonii.com%3A1337&amp;tr=udp%3A%2F%2Ftracker.coppersurfer.tk%3A6969&amp;tr=udp%3A%2F%2Fexodus.desync.com%3A6969","seeders":36,"leechers":27,"uploader":"LeRalouf","files":32,"time":1460487161,"description":"The Walking Dead season 6 HDTV x264-MULTiGRPS, COMPLETE\r\n\r\n\r\nGeneral\r\nFormat : MPEG-4\r\nFormat profile : Base Media\r\nCodec ID : isom\r\nFile size : 816 MiB\r\nDuration : 1h 4mn\r\nOverall bit rate mode : Variable\r\nOverall bit rate : 1 756 Kbps\r\nEncoded date : UTC 2015-10-12 03:23:10\r\nTagged date : UTC 2015-10-12 03:23:10\r\n\r\nVideo\r\nID : 2\r\nFormat : AVC\r\nFormat/Info : Advanced Video Codec\r\nFormat profile :   \r\nFormat settings, CABAC : Yes\r\nFormat settings, ReFrames : 5 frames\r\nCodec ID : avc1\r\nCodec ID/Info : Advanced Video Coding\r\nDuration : 1h 4mn\r\nSource duration : 1h 4mn\r\nBit rate : 1 610 Kbps\r\nMaximum bit rate : 5 561 Kbps\r\nWidth : 720 pixels\r\nHeight : 404 pixels\r\nDisplay aspect ratio : 16:9\r\nFrame rate mode : Constant\r\nFrame rate : 23.976 fps\r\nColor space : YUV\r\nChroma subsampling : 4:2:0\r\nBit depth : 8 bits\r\nScan type : Progressive\r\nBits/(Pixel*Frame) : 0.231\r\nStream size : 748 MiB (92%)\r\nSource stream size : 748 MiB (92%)\r\nWriting library : x264 core 148 r2597 e86f3a1\r\nEncoding settings : cabac=1 / ref=5 / deblock=1:0:0 / analyse=0x3:0x113 / me=umh / subme=8 / psy=1 / psy_rd=1.00:0.00 / mixed_ref=1 / me_range=16 / chroma_me=1 / trellis=1 / 8x8dct=1 / cqm=0 / deadzone=21,11 / fast_pskip=1 / chroma_qp_offset=-2 / threads=13 / lookahead_threads=2 / sliced_threads=0 / nr=0 / decimate=1 / interlaced=0 / bluray_compat=0 / constrained_intra=0 / bframes=3 / b_pyramid=2 / b_adapt=2 / b_bias=0 / direct=3 / weightb=1 / open_gop=0 / weightp=2 / keyint=250 / keyint_min=23 / scenecut=40 / intra_refresh=0 / rc_lookahead=50 / rc=crf / mbtree=1 / crf=19.0 / qcomp=0.60 / qpmin=0 / qpmax=69 / qpstep=4 / ip_ratio=1.40 / aq=1:1.00\r\nEncoded date : UTC 2015-10-12 02:48:01\r\nTagged date : UTC 2015-10-12 03:23:11\r\nMatrix coefficients : BT.709\r\n\r\nAudio\r\nID : 1\r\nFormat : AAC\r\nFormat/Info : Advanced Audio Codec\r\nFormat profile : LC\r\nCodec ID : 40\r\nDuration : 1h 4mn\r\nBit rate mode : Variable\r\nBit rate : 144 Kbps\r\nMaximum bit rate : 172 Kbps\r\nChannel(s) : 2 channels\r\nChannel positions : Front: L R\r\nSampling rate : 48.0 KHz\r\nCompression mode : Lossy\r\nStream size : 65.7 MiB (8%)\r\nEncoded date : UTC 2015-10-12 03:23:10\r\nTagged date : UTC 2015-10-12 03:23:11\r\n\r\n\r\n\r\nThe 6th season complete.\r\nEnglish included, .srt","torrent":{"xt":"urn:btih:f43fe2efdbda654a6b99cd06e752ab22e1026dd3","amp;dn":"The.Walking.Dead.S06.COMPLETE.HDTV.x264-MULTiGRPS","amp;tr":["udp%3A%2F%2Ftracker.leechers-paradise.org%3A6969","udp%3A%2F%2Fzer0day.ch%3A1337","udp%3A%2F%2Fopen.demonii.com%3A1337","udp%3A%2F%2Ftracker.coppersurfer.tk%3A6969","udp%3A%2F%2Fexodus.desync.com%3A6969"],"infoHash":"f43fe2efdbda654a6b99cd06e752ab22e1026dd3","infoHashBuffer":{"type":"Buffer","data":[244,63,226,239,219,218,101,74,107,153,205,6,231,82,171,34,225,2,109,211]},"announce":[],"urlList":[]}}